<svg width="713" height="142" viewBox="0 0 713 142" fill="none" xmlns="http://www.w3.org/2000/svg">
<path d="M164.101 114V36.24H185.509C190.757 36.24 195.301 36.816 199.141 37.968C202.981 39.12 205.957 41.2 208.069 44.208C210.245 47.152 211.333 51.344 211.333 56.784C211.333 59.984 211.077 62.832 210.565 65.328C210.053 67.824 209.093 70 207.685 71.856C206.341 73.648 204.389 75.152 201.829 76.368L212.485 114H194.725L186.181 79.152H181.285V114H164.101ZM181.285 69.264H186.085C188.517 69.264 190.405 68.848 191.749 68.016C193.093 67.12 194.021 65.872 194.533 64.272C195.109 62.608 195.397 60.624 195.397 58.32C195.397 54.992 194.789 52.4 193.573 50.544C192.357 48.688 190.117 47.76 186.853 47.76H181.285V69.264ZM231.263 114V36.24H266.207V47.952H248.447V67.248H261.983V79.152H248.447V102.384H266.399V114H231.263ZM294.169 114L280.153 36.24H294.841L303.193 89.04L310.969 36.24H326.521L312.313 114H294.169ZM344.028 114V36.24H361.212V114H344.028ZM382.407 114V36.24H417.351V47.952H399.591V67.248H413.127V79.152H399.591V102.384H417.543V114H382.407ZM441.184 114L431.776 36.24H446.368L450.976 81.552L456.832 36.336H468.256L474.4 81.264L479.104 36.24H493.504L484.192 114H469.216L462.592 67.056L456.352 114H441.184ZM531.747 115.152C526.883 115.152 522.819 114.288 519.555 112.56C516.291 110.832 513.827 108.176 512.163 104.592C510.499 100.944 509.571 96.24 509.379 90.48L524.067 88.272C524.131 91.6 524.419 94.288 524.931 96.336C525.507 98.384 526.275 99.856 527.235 100.752C528.259 101.648 529.475 102.096 530.883 102.096C532.675 102.096 533.827 101.488 534.339 100.272C534.915 99.056 535.203 97.776 535.203 96.432C535.203 93.232 534.435 90.544 532.899 88.368C531.363 86.128 529.283 83.888 526.659 81.648L519.939 75.792C516.995 73.296 514.499 70.48 512.451 67.344C510.467 64.144 509.475 60.208 509.475 55.536C509.475 48.944 511.427 43.92 515.331 40.464C519.235 36.944 524.547 35.184 531.267 35.184C535.427 35.184 538.755 35.888 541.251 37.296C543.811 38.704 545.731 40.56 547.011 42.864C548.355 45.104 549.251 47.504 549.699 50.064C550.211 52.56 550.499 54.96 550.563 57.264L535.779 59.088C535.715 56.784 535.555 54.8 535.299 53.136C535.107 51.408 534.659 50.096 533.955 49.2C533.251 48.24 532.163 47.76 530.691 47.76C529.091 47.76 527.907 48.432 527.139 49.776C526.435 51.12 526.083 52.464 526.083 53.808C526.083 56.688 526.755 59.056 528.099 60.912C529.507 62.704 531.331 64.592 533.571 66.576L540.003 72.24C543.395 75.12 546.243 78.384 548.547 82.032C550.915 85.68 552.099 90.192 552.099 95.568C552.099 99.216 551.267 102.544 549.603 105.552C547.939 108.496 545.571 110.832 542.499 112.56C539.491 114.288 535.907 115.152 531.747 115.152Z" fill="white"/>
<line x1="119" y1="107" x2="-3.0598e-07" y2="107" stroke="#FA4454" stroke-width="14"/>
<line x1="713" y1="107" x2="594" y2="107" stroke="#FA4454" stroke-width="14"/>
<line x1="144" y1="78" x2="25" y2="78" stroke="#FA4454" stroke-width="14"/>
<line x1="688" y1="78" x2="569" y2="78" stroke="#FA4454" stroke-width="14"/>
<line x1="119" y1="49" x2="-3.0598e-07" y2="49" stroke="#FA4454" stroke-width="14"/>
<line x1="713" y1="49" x2="594" y2="49" stroke="#FA4454" stroke-width="14"/>
</svg>
