<svg width="688" height="249" viewBox="0 0 688 249" fill="none" xmlns="http://www.w3.org/2000/svg">
<path d="M28.2476 196.152C22.4236 196.152 17.8156 195.128 14.4236 193.08C11.0316 191.032 8.59964 188.088 7.12764 184.248C5.65564 180.408 4.91964 175.832 4.91964 170.52V141.624C4.91964 136.248 5.65564 131.672 7.12764 127.896C8.59964 124.12 11.0316 121.24 14.4236 119.256C17.8156 117.208 22.4236 116.184 28.2476 116.184C34.1356 116.184 38.7756 117.208 42.1676 119.256C45.6236 121.24 48.0876 124.12 49.5596 127.896C51.0316 131.672 51.7676 136.248 51.7676 141.624V170.52C51.7676 175.832 51.0316 180.408 49.5596 184.248C48.0876 188.088 45.6236 191.032 42.1676 193.08C38.7756 195.128 34.1356 196.152 28.2476 196.152ZM28.2476 183.96C30.0396 183.96 31.3516 183.512 32.1836 182.616C33.0156 181.72 33.5596 180.568 33.8156 179.16C34.0716 177.752 34.1996 176.312 34.1996 174.84V137.4C34.1996 135.864 34.0716 134.424 33.8156 133.08C33.5596 131.672 33.0156 130.52 32.1836 129.624C31.3516 128.728 30.0396 128.28 28.2476 128.28C26.5836 128.28 25.3356 128.728 24.5036 129.624C23.6716 130.52 23.1276 131.672 22.8716 133.08C22.6156 134.424 22.4876 135.864 22.4876 137.4V174.84C22.4876 176.312 22.5836 177.752 22.7756 179.16C23.0316 180.568 23.5436 181.72 24.3116 182.616C25.1436 183.512 26.4556 183.96 28.2476 183.96ZM71.8256 195V117.24H93.2336C98.4816 117.24 103.026 117.816 106.866 118.968C110.706 120.12 113.682 122.2 115.794 125.208C117.97 128.152 119.058 132.344 119.058 137.784C119.058 140.984 118.802 143.832 118.29 146.328C117.778 148.824 116.818 151 115.41 152.856C114.066 154.648 112.114 156.152 109.554 157.368L120.21 195H102.45L93.9056 160.152H89.0096V195H71.8256ZM89.0096 150.264H93.8096C96.2416 150.264 98.1296 149.848 99.4736 149.016C100.818 148.12 101.746 146.872 102.258 145.272C102.834 143.608 103.122 141.624 103.122 139.32C103.122 135.992 102.514 133.4 101.298 131.544C100.082 129.688 97.8416 128.76 94.5776 128.76H89.0096V150.264ZM138.988 195V117.24H158.668C165.452 117.24 170.732 118.104 174.508 119.832C178.284 121.496 180.94 124.152 182.476 127.8C184.012 131.384 184.78 136.056 184.78 141.816V170.04C184.78 175.864 184.012 180.632 182.476 184.344C180.94 187.992 178.284 190.68 174.508 192.408C170.796 194.136 165.58 195 158.86 195H138.988ZM156.172 183.096H158.86C161.484 183.096 163.372 182.712 164.524 181.944C165.676 181.176 166.38 180.024 166.636 178.488C166.956 176.952 167.116 175.032 167.116 172.728V138.84C167.116 136.536 166.924 134.68 166.54 133.272C166.22 131.864 165.484 130.84 164.332 130.2C163.18 129.56 161.324 129.24 158.764 129.24H156.172V183.096ZM204.838 195V117.24H239.782V128.952H222.022V148.248H235.558V160.152H222.022V183.384H239.974V195H204.838ZM257.376 195V117.24H278.784C284.032 117.24 288.576 117.816 292.416 118.968C296.256 120.12 299.232 122.2 301.344 125.208C303.52 128.152 304.608 132.344 304.608 137.784C304.608 140.984 304.352 143.832 303.84 146.328C303.328 148.824 302.368 151 300.96 152.856C299.616 154.648 297.664 156.152 295.104 157.368L305.76 195H288L279.456 160.152H274.56V195H257.376ZM274.56 150.264H279.36C281.792 150.264 283.68 149.848 285.024 149.016C286.368 148.12 287.296 146.872 287.808 145.272C288.384 143.608 288.672 141.624 288.672 139.32C288.672 135.992 288.064 133.4 286.848 131.544C285.632 129.688 283.392 128.76 280.128 128.76H274.56V150.264ZM379.341 196.152C374.477 196.152 370.413 195.288 367.149 193.56C363.885 191.832 361.421 189.176 359.757 185.592C358.093 181.944 357.165 177.24 356.973 171.48L371.661 169.272C371.725 172.6 372.013 175.288 372.525 177.336C373.101 179.384 373.869 180.856 374.829 181.752C375.853 182.648 377.069 183.096 378.477 183.096C380.269 183.096 381.421 182.488 381.933 181.272C382.509 180.056 382.797 178.776 382.797 177.432C382.797 174.232 382.029 171.544 380.493 169.368C378.957 167.128 376.877 164.888 374.253 162.648L367.533 156.792C364.589 154.296 362.093 151.48 360.045 148.344C358.061 145.144 357.069 141.208 357.069 136.536C357.069 129.944 359.021 124.92 362.925 121.464C366.829 117.944 372.141 116.184 378.861 116.184C383.021 116.184 386.349 116.888 388.845 118.296C391.405 119.704 393.325 121.56 394.605 123.864C395.949 126.104 396.845 128.504 397.293 131.064C397.805 133.56 398.093 135.96 398.157 138.264L383.373 140.088C383.309 137.784 383.149 135.8 382.893 134.136C382.701 132.408 382.253 131.096 381.549 130.2C380.845 129.24 379.757 128.76 378.285 128.76C376.685 128.76 375.501 129.432 374.733 130.776C374.029 132.12 373.677 133.464 373.677 134.808C373.677 137.688 374.349 140.056 375.693 141.912C377.101 143.704 378.925 145.592 381.165 147.576L387.597 153.24C390.989 156.12 393.837 159.384 396.141 163.032C398.509 166.68 399.693 171.192 399.693 176.568C399.693 180.216 398.861 183.544 397.197 186.552C395.533 189.496 393.165 191.832 390.093 193.56C387.085 195.288 383.501 196.152 379.341 196.152ZM424.621 195V130.008H412.909V117.24H453.517V130.008H441.901V195H424.621ZM462.75 195L477.438 117.24H497.022L511.518 195H495.678L493.086 178.584H481.662L478.974 195H462.75ZM483.198 168.312H491.454L487.326 137.976L483.198 168.312ZM531.852 195V130.008H520.14V117.24H560.748V130.008H549.132V195H531.852ZM599.658 196.152C593.706 196.152 589.034 195.192 585.642 193.272C582.314 191.288 579.978 188.44 578.634 184.728C577.29 180.952 576.618 176.344 576.618 170.904V117.24H593.61V173.496C593.61 175.096 593.738 176.696 593.994 178.296C594.25 179.896 594.794 181.208 595.626 182.232C596.522 183.256 597.866 183.768 599.658 183.768C601.514 183.768 602.858 183.256 603.69 182.232C604.522 181.208 605.034 179.896 605.226 178.296C605.482 176.696 605.61 175.096 605.61 173.496V117.24H622.698V170.904C622.698 176.344 621.994 180.952 620.586 184.728C619.242 188.44 616.906 191.288 613.578 193.272C610.25 195.192 605.61 196.152 599.658 196.152ZM663.872 196.152C659.008 196.152 654.944 195.288 651.68 193.56C648.416 191.832 645.952 189.176 644.288 185.592C642.624 181.944 641.696 177.24 641.504 171.48L656.192 169.272C656.256 172.6 656.544 175.288 657.056 177.336C657.632 179.384 658.4 180.856 659.36 181.752C660.384 182.648 661.6 183.096 663.008 183.096C664.8 183.096 665.952 182.488 666.464 181.272C667.04 180.056 667.328 178.776 667.328 177.432C667.328 174.232 666.56 171.544 665.024 169.368C663.488 167.128 661.408 164.888 658.784 162.648L652.064 156.792C649.12 154.296 646.624 151.48 644.576 148.344C642.592 145.144 641.6 141.208 641.6 136.536C641.6 129.944 643.552 124.92 647.456 121.464C651.36 117.944 656.672 116.184 663.392 116.184C667.552 116.184 670.88 116.888 673.376 118.296C675.936 119.704 677.856 121.56 679.136 123.864C680.48 126.104 681.376 128.504 681.824 131.064C682.336 133.56 682.624 135.96 682.688 138.264L667.904 140.088C667.84 137.784 667.68 135.8 667.424 134.136C667.232 132.408 666.784 131.096 666.08 130.2C665.376 129.24 664.288 128.76 662.816 128.76C661.216 128.76 660.032 129.432 659.264 130.776C658.56 132.12 658.208 133.464 658.208 134.808C658.208 137.688 658.88 140.056 660.224 141.912C661.632 143.704 663.456 145.592 665.696 147.576L672.128 153.24C675.52 156.12 678.368 159.384 680.672 163.032C683.04 166.68 684.224 171.192 684.224 176.568C684.224 180.216 683.392 183.544 681.728 186.552C680.064 189.496 677.696 191.832 674.624 193.56C671.616 195.288 668.032 196.152 663.872 196.152Z" fill="white"/>
<path d="M4.88313 96V83.68H17.2031V96H4.88313ZM32.4144 96V83.68H44.7344V96H32.4144ZM59.9456 96V83.68H72.2656V96H59.9456Z" fill="#FA4454"/>
<path d="M561.852 226V213.68H574.172V226H561.852ZM589.383 226V213.68H601.703V226H589.383ZM616.914 226V213.68H629.234V226H616.914ZM644.446 226V213.68H656.766V226H644.446ZM671.977 226V213.68H684.297V226H671.977Z" fill="#FA4454"/>
</svg>
