<svg width="1920" height="2771" viewBox="0 0 1920 2771" fill="none" xmlns="http://www.w3.org/2000/svg">
<rect width="1920" height="2723" fill="#3E3E3E"/>
<path d="M-27 385H287C297.493 385 306 393.507 306 404C306 414.493 297.493 423 287 423H-27V385Z" fill="#353535"/>
<path d="M-27 1996H287C297.493 1996 306 2004.51 306 2015C306 2025.49 297.493 2034 287 2034H-27V1996Z" fill="#353535"/>
<path d="M-27 1189H287C297.493 1189 306 1197.51 306 1208C306 1218.49 297.493 1227 287 1227H-27V1189Z" fill="#353535"/>
<path d="M1957 490L1643 490C1632.51 490 1624 481.493 1624 471C1624 460.507 1632.51 452 1643 452L1957 452L1957 490Z" fill="#353535"/>
<path d="M1957 2101L1643 2101C1632.51 2101 1624 2092.49 1624 2082C1624 2071.51 1632.51 2063 1643 2063L1957 2063L1957 2101Z" fill="#353535"/>
<path d="M1957 1294L1643 1294C1632.51 1294 1624 1285.49 1624 1275C1624 1264.51 1632.51 1256 1643 1256L1957 1256L1957 1294Z" fill="#353535"/>
<path d="M-97 452H217C227.493 452 236 460.507 236 471C236 481.493 227.493 490 217 490H-97V452Z" fill="#353535"/>
<path d="M-97 2063H217C227.493 2063 236 2071.51 236 2082C236 2092.49 227.493 2101 217 2101H-97V2063Z" fill="#353535"/>
<path d="M-97 1256H217C227.493 1256 236 1264.51 236 1275C236 1285.49 227.493 1294 217 1294H-97V1256Z" fill="#353535"/>
<path d="M2027 423L1713 423C1702.51 423 1694 414.493 1694 404C1694 393.507 1702.51 385 1713 385L2027 385L2027 423Z" fill="#353535"/>
<path d="M2027 2034L1713 2034C1702.51 2034 1694 2025.49 1694 2015C1694 2004.51 1702.51 1996 1713 1996L2027 1996L2027 2034Z" fill="#353535"/>
<path d="M2027 1227L1713 1227C1702.51 1227 1694 1218.49 1694 1208C1694 1197.51 1702.51 1189 1713 1189L2027 1189L2027 1227Z" fill="#353535"/>
<path d="M-102 50H212C222.493 50 231 58.5066 231 69C231 79.4934 222.493 88 212 88H-102V50Z" fill="#353535"/>
<path d="M-102 1661H212C222.493 1661 231 1669.51 231 1680C231 1690.49 222.493 1699 212 1699H-102V1661Z" fill="#353535"/>
<path d="M-102 854H212C222.493 854 231 862.507 231 873C231 883.493 222.493 892 212 892H-102V854Z" fill="#353535"/>
<path d="M-102 2465H212C222.493 2465 231 2473.51 231 2484C231 2494.49 222.493 2503 212 2503H-102V2465Z" fill="#353535"/>
<path d="M2032 825L1718 825C1707.51 825 1699 816.493 1699 806C1699 795.507 1707.51 787 1718 787L2032 787L2032 825Z" fill="#353535"/>
<path d="M2032 2436L1718 2436C1707.51 2436 1699 2427.49 1699 2417C1699 2406.51 1707.51 2398 1718 2398L2032 2398L2032 2436Z" fill="#353535"/>
<path d="M2032 1629L1718 1629C1707.51 1629 1699 1620.49 1699 1610C1699 1599.51 1707.51 1591 1718 1591L2032 1591L2032 1629Z" fill="#353535"/>
<path d="M-97 586H217C227.493 586 236 594.507 236 605C236 615.493 227.493 624 217 624H-97V586Z" fill="#353535"/>
<path d="M-97 2197H217C227.493 2197 236 2205.51 236 2216C236 2226.49 227.493 2235 217 2235H-97V2197Z" fill="#353535"/>
<path d="M-97 1390H217C227.493 1390 236 1398.51 236 1409C236 1419.49 227.493 1428 217 1428H-97V1390Z" fill="#353535"/>
<path d="M2027 289L1713 289C1702.51 289 1694 280.493 1694 270C1694 259.507 1702.51 251 1713 251L2027 251L2027 289Z" fill="#353535"/>
<path d="M2027 1900L1713 1900C1702.51 1900 1694 1891.49 1694 1881C1694 1870.51 1702.51 1862 1713 1862L2027 1862L2027 1900Z" fill="#353535"/>
<path d="M2027 1093L1713 1093C1702.51 1093 1694 1084.49 1694 1074C1694 1063.51 1702.51 1055 1713 1055L2027 1055L2027 1093Z" fill="#353535"/>
<path d="M-102 184H212C222.493 184 231 192.507 231 203C231 213.493 222.493 222 212 222H-102V184Z" fill="#353535"/>
<path d="M-102 1795H212C222.493 1795 231 1803.51 231 1814C231 1824.49 222.493 1833 212 1833H-102V1795Z" fill="#353535"/>
<path d="M-102 988H212C222.493 988 231 996.507 231 1007C231 1017.49 222.493 1026 212 1026H-102V988Z" fill="#353535"/>
<path d="M2032 691L1718 691C1707.51 691 1699 682.493 1699 672C1699 661.507 1707.51 653 1718 653L2032 653L2032 691Z" fill="#353535"/>
<path d="M2032 2302L1718 2302C1707.51 2302 1699 2293.49 1699 2283C1699 2272.51 1707.51 2264 1718 2264L2032 2264L2032 2302Z" fill="#353535"/>
<path d="M2032 1495L1718 1495C1707.51 1495 1699 1486.49 1699 1476C1699 1465.51 1707.51 1457 1718 1457L2032 1457L2032 1495Z" fill="#353535"/>
<path d="M-97 720H217C227.493 720 236 728.507 236 739C236 749.493 227.493 758 217 758H-97V720Z" fill="#353535"/>
<path d="M-97 2331H217C227.493 2331 236 2339.51 236 2350C236 2360.49 227.493 2369 217 2369H-97V2331Z" fill="#353535"/>
<path d="M-97 1524H217C227.493 1524 236 1532.51 236 1543C236 1553.49 227.493 1562 217 1562H-97V1524Z" fill="#353535"/>
<path d="M2027 155L1713 155C1702.51 155 1694 146.493 1694 136C1694 125.507 1702.51 117 1713 117L2027 117L2027 155Z" fill="#353535"/>
<path d="M2027 1766L1713 1766C1702.51 1766 1694 1757.49 1694 1747C1694 1736.51 1702.51 1728 1713 1728L2027 1728L2027 1766Z" fill="#353535"/>
<path d="M2027 959L1713 959C1702.51 959 1694 950.493 1694 940C1694 929.507 1702.51 921 1713 921L2027 921L2027 959Z" fill="#353535"/>
<path d="M-102 318H212C222.493 318 231 326.507 231 337C231 347.493 222.493 356 212 356H-102V318Z" fill="#353535"/>
<path d="M-102 1929H212C222.493 1929 231 1937.51 231 1948C231 1958.49 222.493 1967 212 1967H-102V1929Z" fill="#353535"/>
<path d="M-102 1122H212C222.493 1122 231 1130.51 231 1141C231 1151.49 222.493 1160 212 1160H-102V1122Z" fill="#353535"/>
<path d="M2032 557L1718 557C1707.51 557 1699 548.493 1699 538C1699 527.507 1707.51 519 1718 519L2032 519L2032 557Z" fill="#353535"/>
<path d="M2032 2168L1718 2168C1707.51 2168 1699 2159.49 1699 2149C1699 2138.51 1707.51 2130 1718 2130L2032 2130L2032 2168Z" fill="#353535"/>
<path d="M2032 1361L1718 1361C1707.51 1361 1699 1352.49 1699 1342C1699 1331.51 1707.51 1323 1718 1323L2032 1323L2032 1361Z" fill="#353535"/>
<path d="M-22 519H292C302.493 519 311 527.507 311 538C311 548.493 302.493 557 292 557H-22V519Z" fill="#353535"/>
<path d="M-22 2130H292C302.493 2130 311 2138.51 311 2149C311 2159.49 302.493 2168 292 2168H-22V2130Z" fill="#353535"/>
<path d="M-22 1323H292C302.493 1323 311 1331.51 311 1342C311 1352.49 302.493 1361 292 1361H-22V1323Z" fill="#353535"/>
<path d="M1952 356L1638 356C1627.51 356 1619 347.493 1619 337C1619 326.507 1627.51 318 1638 318L1952 318L1952 356Z" fill="#353535"/>
<path d="M1952 1967L1638 1967C1627.51 1967 1619 1958.49 1619 1948C1619 1937.51 1627.51 1929 1638 1929L1952 1929L1952 1967Z" fill="#353535"/>
<path d="M1952 1160L1638 1160C1627.51 1160 1619 1151.49 1619 1141C1619 1130.51 1627.51 1122 1638 1122L1952 1122L1952 1160Z" fill="#353535"/>
<path d="M-27 117H287C297.493 117 306 125.507 306 136C306 146.493 297.493 155 287 155H-27V117Z" fill="#353535"/>
<path d="M-27 1728H287C297.493 1728 306 1736.51 306 1747C306 1757.49 297.493 1766 287 1766H-27V1728Z" fill="#353535"/>
<path d="M-27 921H287C297.493 921 306 929.507 306 940C306 950.493 297.493 959 287 959H-27V921Z" fill="#353535"/>
<path d="M1957 758L1643 758C1632.51 758 1624 749.493 1624 739C1624 728.507 1632.51 720 1643 720L1957 720L1957 758Z" fill="#353535"/>
<path d="M1957 2369L1643 2369C1632.51 2369 1624 2360.49 1624 2350C1624 2339.51 1632.51 2331 1643 2331L1957 2331L1957 2369Z" fill="#353535"/>
<path d="M1957 1562L1643 1562C1632.51 1562 1624 1553.49 1624 1543C1624 1532.51 1632.51 1524 1643 1524L1957 1524L1957 1562Z" fill="#353535"/>
<path d="M-22 653H292C302.493 653 311 661.507 311 672C311 682.493 302.493 691 292 691H-22V653Z" fill="#353535"/>
<path d="M-22 2264H292C302.493 2264 311 2272.51 311 2283C311 2293.49 302.493 2302 292 2302H-22V2264Z" fill="#353535"/>
<path d="M-22 1457H292C302.493 1457 311 1465.51 311 1476C311 1486.49 302.493 1495 292 1495H-22V1457Z" fill="#353535"/>
<path d="M1952 222L1638 222C1627.51 222 1619 213.493 1619 203C1619 192.507 1627.51 184 1638 184L1952 184L1952 222Z" fill="#353535"/>
<path d="M1952 1833L1638 1833C1627.51 1833 1619 1824.49 1619 1814C1619 1803.51 1627.51 1795 1638 1795L1952 1795L1952 1833Z" fill="#353535"/>
<path d="M1952 1026L1638 1026C1627.51 1026 1619 1017.49 1619 1007C1619 996.507 1627.51 988 1638 988L1952 988L1952 1026Z" fill="#353535"/>
<path d="M-27 251H287C297.493 251 306 259.507 306 270C306 280.493 297.493 289 287 289H-27V251Z" fill="#353535"/>
<path d="M-27 1862H287C297.493 1862 306 1870.51 306 1881C306 1891.49 297.493 1900 287 1900H-27V1862Z" fill="#353535"/>
<path d="M-27 1055H287C297.493 1055 306 1063.51 306 1074C306 1084.49 297.493 1093 287 1093H-27V1055Z" fill="#353535"/>
<path d="M1957 624L1643 624C1632.51 624 1624 615.493 1624 605C1624 594.507 1632.51 586 1643 586L1957 586L1957 624Z" fill="#353535"/>
<path d="M1957 2235L1643 2235C1632.51 2235 1624 2226.49 1624 2216C1624 2205.51 1632.51 2197 1643 2197L1957 2197L1957 2235Z" fill="#353535"/>
<path d="M1957 1428L1643 1428C1632.51 1428 1624 1419.49 1624 1409C1624 1398.51 1632.51 1390 1643 1390L1957 1390L1957 1428Z" fill="#353535"/>
<path d="M-22 787H292C302.493 787 311 795.507 311 806C311 816.493 302.493 825 292 825H-22V787Z" fill="#353535"/>
<path d="M-22 2398H292C302.493 2398 311 2406.51 311 2417C311 2427.49 302.493 2436 292 2436H-22V2398Z" fill="#353535"/>
<path d="M-102 2599H212C222.493 2599 231 2607.51 231 2618V2618C231 2628.49 222.493 2637 212 2637H-102V2599Z" fill="#353535"/>
<path d="M-22 2532H292C302.493 2532 311 2540.51 311 2551V2551C311 2561.49 302.493 2570 292 2570H-22V2532Z" fill="#353535"/>
<path d="M-22 2666H292C302.493 2666 311 2674.51 311 2685V2685C311 2695.49 302.493 2704 292 2704H-22V2666Z" fill="#353535"/>
<path d="M-22 1591H292C302.493 1591 311 1599.51 311 1610C311 1620.49 302.493 1629 292 1629H-22V1591Z" fill="#353535"/>
<path d="M1952 88L1638 88C1627.51 88 1619 79.4934 1619 69C1619 58.5066 1627.51 50 1638 50L1952 50L1952 88Z" fill="#353535"/>
<path d="M1952 1699L1638 1699C1627.51 1699 1619 1690.49 1619 1680C1619 1669.51 1627.51 1661 1638 1661L1952 1661L1952 1699Z" fill="#353535"/>
<path d="M1952 892L1638 892C1627.51 892 1619 883.493 1619 873C1619 862.507 1627.51 854 1638 854L1952 854L1952 892Z" fill="#353535"/>
<path d="M1952 2503L1638 2503C1627.51 2503 1619 2494.49 1619 2484C1619 2473.51 1627.51 2465 1638 2465L1952 2465L1952 2503Z" fill="#353535"/>
<path d="M2037 2570L1723 2570C1712.51 2570 1704 2561.49 1704 2551V2551C1704 2540.51 1712.51 2532 1723 2532L2037 2532L2037 2570Z" fill="#353535"/>
<path d="M1957 2637L1643 2637C1632.51 2637 1624 2628.49 1624 2618V2618C1624 2607.51 1632.51 2599 1643 2599L1957 2599L1957 2637Z" fill="#353535"/>
<path d="M2037 2704L1723 2704C1712.51 2704 1704 2695.49 1704 2685V2685C1704 2674.51 1712.51 2666 1723 2666L2037 2666L2037 2704Z" fill="#353535"/>
</svg>
