<svg width="863" height="142" viewBox="0 0 863 142" fill="none" xmlns="http://www.w3.org/2000/svg">
<path d="M127.76 114V36.24H148.016C151.344 36.24 154.48 36.496 157.424 37.008C160.432 37.52 163.088 38.512 165.392 39.984C167.696 41.392 169.488 43.44 170.768 46.128C172.112 48.752 172.784 52.24 172.784 56.592C172.784 59.728 172.304 62.384 171.344 64.56C170.448 66.672 169.136 68.368 167.408 69.648C165.744 70.928 163.728 71.792 161.36 72.24C164.368 72.624 166.896 73.616 168.944 75.216C170.992 76.752 172.528 78.832 173.552 81.456C174.64 84.08 175.184 87.248 175.184 90.96C175.184 94.992 174.64 98.48 173.552 101.424C172.528 104.304 171.024 106.672 169.04 108.528C167.056 110.384 164.592 111.76 161.648 112.656C158.768 113.552 155.44 114 151.664 114H127.76ZM144.944 102H148.592C152.368 102 154.96 101.04 156.368 99.12C157.84 97.2 158.576 94.384 158.576 90.672C158.576 87.728 158.256 85.392 157.616 83.664C156.976 81.936 155.92 80.688 154.448 79.92C152.976 79.088 150.992 78.672 148.496 78.672H144.944V102ZM144.944 67.344H148.304C150.928 67.344 152.912 66.96 154.256 66.192C155.6 65.36 156.496 64.176 156.944 62.64C157.456 61.104 157.712 59.248 157.712 57.072C157.712 55.024 157.328 53.328 156.56 51.984C155.856 50.576 154.768 49.52 153.296 48.816C151.888 48.112 150.096 47.76 147.92 47.76H144.944V67.344ZM193.797 114V36.24H228.742V47.952H210.981V67.248H224.518V79.152H210.981V102.384H228.934V114H193.797ZM266.975 115.152C262.111 115.152 258.047 114.288 254.783 112.56C251.519 110.832 249.055 108.176 247.391 104.592C245.727 100.944 244.799 96.24 244.607 90.48L259.295 88.272C259.359 91.6 259.647 94.288 260.159 96.336C260.735 98.384 261.503 99.856 262.463 100.752C263.487 101.648 264.703 102.096 266.111 102.096C267.903 102.096 269.055 101.488 269.567 100.272C270.143 99.056 270.431 97.776 270.431 96.432C270.431 93.232 269.663 90.544 268.127 88.368C266.591 86.128 264.511 83.888 261.887 81.648L255.167 75.792C252.223 73.296 249.727 70.48 247.679 67.344C245.695 64.144 244.703 60.208 244.703 55.536C244.703 48.944 246.655 43.92 250.559 40.464C254.463 36.944 259.775 35.184 266.495 35.184C270.655 35.184 273.983 35.888 276.479 37.296C279.039 38.704 280.959 40.56 282.239 42.864C283.583 45.104 284.479 47.504 284.927 50.064C285.439 52.56 285.727 54.96 285.791 57.264L271.007 59.088C270.943 56.784 270.783 54.8 270.527 53.136C270.335 51.408 269.887 50.096 269.183 49.2C268.479 48.24 267.391 47.76 265.919 47.76C264.319 47.76 263.135 48.432 262.367 49.776C261.663 51.12 261.311 52.464 261.311 53.808C261.311 56.688 261.983 59.056 263.327 60.912C264.735 62.704 266.559 64.592 268.799 66.576L275.231 72.24C278.623 75.12 281.471 78.384 283.775 82.032C286.143 85.68 287.327 90.192 287.327 95.568C287.327 99.216 286.495 102.544 284.831 105.552C283.167 108.496 280.799 110.832 277.727 112.56C274.719 114.288 271.135 115.152 266.975 115.152ZM312.256 114V49.008H300.544V36.24H341.152V49.008H329.536V114H312.256ZM412.4 115.152C407.536 115.152 403.472 114.288 400.208 112.56C396.944 110.832 394.48 108.176 392.816 104.592C391.152 100.944 390.224 96.24 390.032 90.48L404.72 88.272C404.784 91.6 405.072 94.288 405.584 96.336C406.16 98.384 406.928 99.856 407.888 100.752C408.912 101.648 410.128 102.096 411.536 102.096C413.328 102.096 414.48 101.488 414.992 100.272C415.568 99.056 415.856 97.776 415.856 96.432C415.856 93.232 415.088 90.544 413.552 88.368C412.016 86.128 409.936 83.888 407.312 81.648L400.592 75.792C397.648 73.296 395.152 70.48 393.104 67.344C391.12 64.144 390.128 60.208 390.128 55.536C390.128 48.944 392.08 43.92 395.984 40.464C399.888 36.944 405.2 35.184 411.92 35.184C416.08 35.184 419.408 35.888 421.904 37.296C424.464 38.704 426.384 40.56 427.664 42.864C429.008 45.104 429.904 47.504 430.352 50.064C430.864 52.56 431.152 54.96 431.216 57.264L416.432 59.088C416.368 56.784 416.208 54.8 415.952 53.136C415.76 51.408 415.312 50.096 414.608 49.2C413.904 48.24 412.816 47.76 411.344 47.76C409.744 47.76 408.56 48.432 407.792 49.776C407.088 51.12 406.736 52.464 406.736 53.808C406.736 56.688 407.408 59.056 408.752 60.912C410.16 62.704 411.984 64.592 414.224 66.576L420.656 72.24C424.048 75.12 426.896 78.384 429.2 82.032C431.568 85.68 432.752 90.192 432.752 95.568C432.752 99.216 431.92 102.544 430.256 105.552C428.592 108.496 426.224 110.832 423.152 112.56C420.144 114.288 416.56 115.152 412.4 115.152ZM450.673 114V36.24H485.617V47.952H467.857V67.248H481.393V79.152H467.857V102.384H485.809V114H450.673ZM503.21 114V36.24H520.394V102.384H538.25V114H503.21ZM555.372 114V36.24H572.556V102.384H590.412V114H555.372ZM607.535 114V36.24H642.479V47.952H624.719V67.248H638.255V79.152H624.719V102.384H642.671V114H607.535ZM660.073 114V36.24H681.481C686.729 36.24 691.273 36.816 695.113 37.968C698.953 39.12 701.929 41.2 704.041 44.208C706.217 47.152 707.305 51.344 707.305 56.784C707.305 59.984 707.049 62.832 706.537 65.328C706.025 67.824 705.065 70 703.656 71.856C702.313 73.648 700.361 75.152 697.801 76.368L708.457 114H690.697L682.153 79.152H677.257V114H660.073ZM677.257 69.264H682.057C684.489 69.264 686.377 68.848 687.721 68.016C689.065 67.12 689.993 65.872 690.505 64.272C691.081 62.608 691.369 60.624 691.369 58.32C691.369 54.992 690.761 52.4 689.545 50.544C688.329 48.688 686.089 47.76 682.825 47.76H677.257V69.264ZM747.5 115.152C742.636 115.152 738.572 114.288 735.308 112.56C732.044 110.832 729.58 108.176 727.916 104.592C726.252 100.944 725.324 96.24 725.132 90.48L739.82 88.272C739.884 91.6 740.172 94.288 740.684 96.336C741.26 98.384 742.028 99.856 742.988 100.752C744.012 101.648 745.228 102.096 746.636 102.096C748.428 102.096 749.58 101.488 750.092 100.272C750.668 99.056 750.956 97.776 750.956 96.432C750.956 93.232 750.188 90.544 748.652 88.368C747.116 86.128 745.036 83.888 742.412 81.648L735.692 75.792C732.748 73.296 730.252 70.48 728.204 67.344C726.22 64.144 725.228 60.208 725.228 55.536C725.228 48.944 727.18 43.92 731.084 40.464C734.988 36.944 740.3 35.184 747.02 35.184C751.18 35.184 754.508 35.888 757.004 37.296C759.564 38.704 761.484 40.56 762.764 42.864C764.108 45.104 765.004 47.504 765.452 50.064C765.964 52.56 766.252 54.96 766.316 57.264L751.532 59.088C751.468 56.784 751.308 54.8 751.052 53.136C750.86 51.408 750.412 50.096 749.708 49.2C749.004 48.24 747.916 47.76 746.444 47.76C744.844 47.76 743.66 48.432 742.892 49.776C742.188 51.12 741.836 52.464 741.836 53.808C741.836 56.688 742.508 59.056 743.852 60.912C745.26 62.704 747.084 64.592 749.324 66.576L755.756 72.24C759.148 75.12 761.996 78.384 764.3 82.032C766.668 85.68 767.852 90.192 767.852 95.568C767.852 99.216 767.02 102.544 765.356 105.552C763.692 108.496 761.324 110.832 758.252 112.56C755.244 114.288 751.66 115.152 747.5 115.152Z" fill="white"/>
<path d="M811.267 35.43H828.267L800.217 115.5H783.217L811.267 35.43ZM843.597 35.43H860.597L832.547 115.5H815.547L843.597 35.43Z" fill="#FA4454"/>
<path d="M30.6019 35.43H47.6019L19.5519 115.5H2.55185L30.6019 35.43ZM62.9317 35.43H79.9317L51.8817 115.5H34.8817L62.9317 35.43ZM95.2616 35.43H112.262L84.2116 115.5H67.2116L95.2616 35.43Z" fill="#FA4454"/>
</svg>
