<svg width="1920" height="2605" viewBox="0 0 1920 2605" fill="none" xmlns="http://www.w3.org/2000/svg">
<line x1="12.5" y1="-12.5" x2="499.808" y2="-12.5" transform="matrix(0.999998 -0.00195195 0.0016632 0.999999 64 995)" stroke="#353535" stroke-width="25" stroke-linecap="round"/>
<line x1="196.5" y1="1026.5" x2="603.5" y2="1026.5" stroke="#2E2E2E" stroke-width="25" stroke-linecap="round"/>
<line x1="1426.5" y1="1202.5" x2="1833.5" y2="1202.5" stroke="#2E2E2E" stroke-width="25" stroke-linecap="round"/>
<line x1="1378.5" y1="1247.5" x2="1719.5" y2="1247.5" stroke="#353535" stroke-width="25" stroke-linecap="round"/>
<circle cx="1577" cy="635" r="149" fill="#353535"/>
<circle cx="1566" cy="2197" r="152" fill="#353535"/>
<circle cx="422.607" cy="1839.61" r="245.445" transform="rotate(165 422.607 1839.61)" fill="#353535"/>
<circle cx="83.5" cy="411.5" r="135.5" fill="#353535"/>
<circle cx="1683" cy="433" r="53" fill="#353535"/>
<ellipse cx="1669.5" cy="2050" rx="48.5" ry="49" fill="#313131"/>
<circle cx="370.928" cy="2258.93" r="87.306" transform="rotate(165 370.928 2258.93)" fill="#2D2D2D"/>
<circle cx="184.5" cy="281.5" r="62.5" fill="#2D2D2D"/>
<ellipse rx="73.7264" ry="73.6513" transform="matrix(0.176695 0.984266 -0.983825 0.179131 1721.49 859.76)" fill="#353535"/>
<ellipse rx="67.798" ry="67.729" transform="matrix(0.176695 0.984266 -0.983825 0.179131 1751.61 2413.86)" fill="#353535"/>
<ellipse rx="67.798" ry="67.729" transform="matrix(0.176695 0.984266 -0.983825 0.179131 1718.61 1653.86)" fill="#2E2E2E"/>
<ellipse rx="121.448" ry="121.325" transform="matrix(-0.425421 -0.904996 0.90394 -0.42766 84.1499 1559.33)" fill="#2D2D2D"/>
<circle cx="1898" cy="396" r="115" fill="#353535"/>
<circle cx="1872" cy="2007" r="106" fill="#353535"/>
<circle cx="1.01266" cy="2372.5" r="189.438" transform="rotate(165 1.01266 2372.5)" fill="#353535"/>
<circle cx="1636" cy="301" r="36" fill="#353535"/>
<circle cx="1631" cy="1920" r="33" fill="#252422"/>
<circle cx="1554" cy="36" r="36" fill="#252422"/>
<circle cx="146.5" cy="46.5" r="27.5" fill="#252422"/>
<circle cx="1729.5" cy="461.5" r="28.5" fill="#252422"/>
<circle cx="266.499" cy="2221.5" r="46.9476" transform="rotate(165 266.499 2221.5)" fill="#252422"/>
<ellipse rx="39.6453" ry="39.6049" transform="matrix(0.176695 0.984266 -0.983825 0.179131 1693.95 930.521)" fill="#252422"/>
<ellipse rx="36.4574" ry="36.4203" transform="matrix(0.176695 0.984266 -0.983825 0.179131 1710.27 2472.41)" fill="#252422"/>
<ellipse rx="65.3071" ry="65.2406" transform="matrix(-0.425421 -0.904996 0.90394 -0.42766 97.7921 1435)" fill="#353535"/>
<circle cx="1714.5" cy="168.5" r="132.5" fill="#2D2D2D"/>
<ellipse cx="1703.5" cy="1798" rx="121.5" ry="122" fill="#353535"/>
<path d="M-20 697H1170C1182.7 697 1193 707.297 1193 720C1193 732.703 1182.7 743 1170 743H-20V697Z" fill="#252422"/>
<path d="M-52 619H400C412.703 619 423 629.297 423 642C423 654.703 412.703 665 400 665H-52V619Z" fill="#1C1C1C"/>
<line x1="1257.5" y1="1407.5" x2="1966.5" y2="1407.5" stroke="#252422" stroke-width="59" stroke-linecap="round"/>
<line x1="1095" y1="1507" x2="1958" y2="1507" stroke="#252422" stroke-width="40" stroke-linecap="round"/>
<circle cx="247.5" cy="774.5" r="132.5" fill="#2D2D2D"/>
</svg>
