<svg width="1920" height="4069" viewBox="0 0 1920 4069" fill="none" xmlns="http://www.w3.org/2000/svg">
<rect width="1920" height="4069" fill="#3E3E3E"/>
<circle cx="1776.5" cy="864.5" r="192.5" fill="#353535"/>
<circle cx="69.5" cy="429.5" r="135.5" fill="#353535"/>
<circle cx="1705" cy="503" r="53" fill="#353535"/>
<circle cx="1406" cy="397" r="53" fill="#353535"/>
<circle cx="170.5" cy="299.5" r="62.5" fill="#2D2D2D"/>
<circle cx="351" cy="170" r="48" fill="#2D2D2D"/>
<circle cx="418" cy="79" r="20" fill="#2D2D2D"/>
<circle cx="1920" cy="466" r="115" fill="#353535"/>
<circle cx="1372.5" cy="651.5" r="95.5" fill="#353535"/>
<circle cx="1669" cy="347" r="36" fill="#353535"/>
<circle cx="1576" cy="106" r="36" fill="#252422"/>
<circle cx="168.5" cy="116.5" r="27.5" fill="#252422"/>
<circle cx="1751.5" cy="531.5" r="28.5" fill="#252422"/>
<rect x="580" y="3761" width="1412" height="88" rx="44" fill="#343434"/>
<rect x="954" y="3308" width="901" height="59" rx="29.5" fill="#353535"/>
<rect x="788" y="3879" width="901" height="59" rx="29.5" fill="#353535"/>
<rect x="1137" y="3014" width="901" height="32" rx="16" fill="#3A3A3A"/>
<rect x="845" y="2942" width="901" height="32" rx="16" fill="#3A3A3A"/>
<rect x="957" y="2880" width="901" height="32" rx="16" fill="#3A3A3A"/>
<circle cx="1543" cy="2363" r="152" fill="#353535"/>
<circle cx="596.607" cy="1983.61" r="245.445" transform="rotate(165 596.607 1983.61)" fill="#353535"/>
<ellipse rx="67.798" ry="67.729" transform="matrix(0.176695 0.984266 -0.983825 0.179131 1838.61 2649.86)" fill="#353535"/>
<ellipse rx="67.798" ry="67.729" transform="matrix(0.176695 0.984266 -0.983825 0.179131 246.614 1157.86)" fill="#353535"/>
<ellipse rx="67.798" ry="67.729" transform="matrix(0.176695 0.984266 -0.983825 0.179131 147.614 3321.86)" fill="#353535"/>
<ellipse rx="67.798" ry="67.729" transform="matrix(0.176695 0.984266 -0.983825 0.179131 1805.61 1889.86)" fill="#2E2E2E"/>
<rect x="85" y="813" width="913" height="59" rx="29.5" fill="#353535"/>
<path d="M0 911H303.5C319.792 911 333 924.208 333 940.5C333 956.792 319.792 970 303.5 970H0V911Z" fill="#353535"/>
<ellipse rx="121.448" ry="121.325" transform="matrix(-0.425421 -0.904996 0.90394 -0.42766 171.15 1795.33)" fill="#2D2D2D"/>
<circle cx="1959" cy="2243" r="106" fill="#353535"/>
<circle cx="88.0127" cy="2608.5" r="189.438" transform="rotate(165 88.0127 2608.5)" fill="#353535"/>
<circle cx="144.081" cy="3612.08" r="266.244" transform="rotate(165 144.081 3612.08)" fill="#353535"/>
<circle cx="353.499" cy="2457.5" r="46.9476" transform="rotate(165 353.499 2457.5)" fill="#252422"/>
<ellipse rx="65.3071" ry="65.2406" transform="matrix(-0.425421 -0.904996 0.90394 -0.42766 184.792 1671)" fill="#353535"/>
<ellipse cx="1790.5" cy="2034" rx="121.5" ry="122" fill="#353535"/>
<circle cx="1907" cy="1359" r="85" fill="#353535"/>
<circle cx="1741" cy="1460" r="124" fill="#303030"/>
</svg>
