<svg width="1920" height="4483" viewBox="0 0 1920 4483" fill="none" xmlns="http://www.w3.org/2000/svg">
<rect width="1920" height="4483" fill="#3E3E3E"/>
<circle cx="1799.5" cy="868.5" r="192.5" fill="#353535"/>
<circle cx="92.5" cy="433.5" r="135.5" fill="#353535"/>
<circle cx="1728" cy="507" r="53" fill="#353535"/>
<circle cx="1941.02" cy="2984.02" r="53" transform="rotate(-45 1941.02 2984.02)" fill="#353535"/>
<circle cx="42" cy="1925" r="53" fill="#353535"/>
<circle cx="1765" cy="2191" r="53" fill="#353535"/>
<circle cx="1662" cy="2265" r="103" fill="#353535"/>
<circle cx="193.5" cy="303.5" r="62.5" fill="#2D2D2D"/>
<circle cx="654" cy="110" r="31" fill="#2D2D2D"/>
<circle cx="767" cy="168" r="20" fill="#2D2D2D"/>
<circle cx="1943" cy="470" r="115" fill="#353535"/>
<circle cx="281" cy="1925" r="115" fill="#353535"/>
<circle cx="1852" cy="1464" r="115" fill="#353535"/>
<circle cx="1692" cy="351" r="36" fill="#353535"/>
<circle cx="1805.25" cy="2899.17" r="36" transform="rotate(-45 1805.25 2899.17)" fill="#353535"/>
<circle cx="1599" cy="110" r="36" fill="#252422"/>
<circle cx="191.5" cy="120.5" r="27.5" fill="#252422"/>
<circle cx="1774.5" cy="535.5" r="28.5" fill="#252422"/>
<circle cx="88.5" cy="1953.5" r="28.5" fill="#252422"/>
<circle cx="1468.5" cy="2223.5" r="28.5" fill="#353535"/>
<circle cx="1777.5" cy="227.5" r="132.5" fill="#2D2D2D"/>
<circle cx="1778.38" cy="2751.38" r="132.5" transform="rotate(-45 1778.38 2751.38)" fill="#363636"/>
<circle cx="1950.04" cy="3207.73" r="168.78" transform="rotate(-45 1950.04 3207.73)" fill="#363636"/>
<circle cx="91.5" cy="1675.5" r="132.5" fill="#2D2D2D"/>
<line x1="123" y1="762" x2="991" y2="762" stroke="#353535" stroke-width="40" stroke-linecap="round"/>
<line x1="-72" y1="891" x2="1190" y2="891" stroke="#353535" stroke-width="40" stroke-linecap="round"/>
<line x1="-20" y1="826" x2="848" y2="826" stroke="#2C2C2C" stroke-width="40" stroke-linecap="round"/>
<circle cx="6" cy="3975" r="152" fill="#353535"/>
<ellipse rx="67.798" ry="67.729" transform="matrix(0.176695 0.984266 -0.983825 0.179131 51.6137 2378.86)" fill="#2E2E2E"/>
<circle cx="166" cy="2629" r="106" fill="#353535"/>
<ellipse cx="36.5" cy="2523" rx="121.5" ry="122" fill="#353535"/>
</svg>
